<svg width="155" height="32" viewBox="0 0 155 32" fill="none" xmlns="http://www.w3.org/2000/svg">
<g id="&#208;&#187;&#208;&#190;&#208;&#179;&#208;&#190;&#209;&#130;&#208;&#184;&#208;&#191;">
<path id="Vector" d="M105.008 6.74031L99.8501 14.7392L95.9553 13.2657L92.0605 11.7922L94.6922 8.21378C96.1659 6.31931 97.2185 4.10911 97.008 3.37237C96.7974 2.74088 95.1132 4.3196 93.2185 6.9508C90.3763 11.1607 89.3237 11.7922 85.0078 12.5289C79.5341 13.2657 74.6919 17.1599 75.7446 19.7911C76.5867 21.896 78.2709 22.0013 78.2709 20.0016C78.2709 18.6333 85.2184 15.4759 86.1657 16.4231C86.4815 16.6336 85.4289 19.1596 84.0605 22.0013C82.5868 24.7377 81.7446 27.3689 82.0604 27.6847C82.4815 28.0004 82.9026 27.7899 83.1131 27.2637C83.4289 26.6322 85.0078 23.6852 86.6921 20.633C89.3237 16.1074 90.3763 15.1601 92.7974 15.1601C97.2185 15.1601 98.6922 16.5284 97.2185 19.2648C96.5869 20.5278 96.1659 22.1065 96.3764 22.738C96.5869 23.3695 98.3764 21.1593 100.271 17.6861C102.166 14.3182 105.429 9.16101 107.429 6.42456C109.429 3.58287 110.798 0.741173 110.587 0.109684C110.377 -0.62705 107.85 2.42514 105.008 6.74031Z" fill="#3E3E3E"/>
<path id="Vector_2" d="M16.6914 2.10957C11.6387 4.84602 9.84919 6.84573 9.84919 9.89792C9.84919 12.1081 10.586 13.0554 13.0071 14.1078C19.9546 17.0548 15.0071 20.949 5.42809 20.107C-0.677243 19.5807 -0.782507 19.5807 1.00699 21.5804C3.95439 24.8431 18.2703 23.6854 18.2703 20.2122C18.2703 19.7912 18.7966 19.3702 19.323 19.3702C19.9546 19.3702 20.3756 20.107 20.3756 20.949C20.3756 23.4749 23.2177 24.0012 26.0599 22.1067C28.2704 20.7385 28.7968 20.7385 29.8494 22.0014C31.5336 24.0012 33.4284 24.0012 37.1126 22.0014C39.8495 20.6332 40.2706 20.6332 41.5337 22.1067C42.7969 23.6854 45.1127 23.6854 49.218 22.0014C51.0075 21.1595 51.0075 21.37 49.4286 24.4221C47.6391 27.7901 47.218 32 48.5864 32C49.0075 31.8948 50.3759 29.5793 51.7444 26.7376C53.9549 22.1067 54.376 21.6857 56.1655 22.7382C58.7971 24.4221 62.4813 22.4224 65.0077 18.2125C67.113 14.6341 66.5866 12.0029 63.7445 12.0029C62.6919 12.0029 61.4287 11.5819 60.7971 10.9504C60.1655 10.3189 57.7444 11.8976 53.7444 15.6866C47.7443 21.4752 44.5864 22.9487 44.5864 19.8965C44.5864 18.9492 45.5338 18.3178 47.0075 18.3178C49.6391 18.3178 51.9549 16.5285 51.9549 14.4236C51.9549 13.5816 50.6917 13.0554 48.6917 13.0554C46.2706 13.0554 44.0601 14.2131 40.7969 17.2653C36.06 21.5804 33.0073 22.6329 33.0073 19.8965C33.0073 19.0545 33.9547 18.3178 35.0073 18.3178C38.4811 18.3178 40.3758 17.16 40.3758 15.0551C40.3758 13.4764 39.639 13.0554 37.1126 13.0554C34.6916 13.0554 32.481 14.2131 29.2178 17.2653C26.6915 19.5807 24.1651 21.4752 23.5335 21.4752C21.9546 21.4752 24.6914 16.5285 29.7441 10.4242C32.1652 7.58247 34.06 4.74077 34.06 4.31978C34.06 3.79354 32.6915 3.58304 31.0073 3.79354C28.7968 4.10928 28.0599 3.79354 28.1652 2.63581C28.2704 0.320354 20.6914 0.00461197 16.6914 2.10957ZM22.0598 5.79325C19.4282 8.95069 18.6914 11.0557 19.9546 12.2134C20.2703 12.6344 22.1651 11.1609 24.0599 9.05594C28.7968 4.00403 28.6915 5.8985 23.9546 12.4239C20.9019 16.5285 19.9546 17.2653 19.2177 16.0023C18.6914 15.0551 16.9019 13.7921 15.1124 13.0554L11.8492 11.6871L14.2703 9.16119C16.2703 7.05623 22.7967 2.74106 24.3757 2.53056C24.5862 2.53056 23.5335 4.00403 22.0598 5.79325ZM62.4813 16.739C62.4813 18.7388 58.4813 22.7382 57.2181 22.0014C56.1655 21.37 56.9023 18.6335 58.5866 16.4233C59.955 14.6341 62.4813 14.8446 62.4813 16.739Z" fill="#3E3E3E"/>
<path id="Vector_3" d="M125.745 14.8445C124.482 17.0547 123.64 18.0019 123.955 16.9495C124.587 14.8445 123.745 12.0028 122.376 12.0028C121.85 12.0028 121.429 12.7395 121.429 13.4763C121.429 15.055 115.219 20.4226 113.534 20.4226C113.113 20.4226 113.534 19.4754 114.692 18.2124C116.692 16.0022 116.587 16.0022 114.166 13.8973C112.376 12.529 110.692 12.108 108.903 12.529C105.534 13.2658 101.218 18.0019 101.639 20.3174C102.06 22.4223 106.271 23.1591 108.376 21.4751C109.429 20.5279 109.85 20.5279 109.85 21.3699C109.85 23.2643 114.061 22.7381 117.429 20.3174L120.587 18.0019L119.85 20.3174C118.482 24.7378 122.798 22.7381 126.587 17.2652C128.587 14.4235 130.587 12.3185 131.113 12.6343C131.64 13.0553 131.113 14.3183 129.956 15.5812C125.745 20.1069 128.482 24.9483 134.061 22.8433C135.745 22.2119 137.535 22.1066 138.377 22.6328C139.429 23.3696 141.219 22.1066 144.482 18.6334C147.008 15.7917 148.061 14.9497 146.798 16.6337C143.956 20.4226 143.956 22.5276 146.693 22.5276C149.219 22.5276 154.061 19.5807 154.061 18.1072C154.061 17.4757 152.903 17.7914 151.535 18.7387L148.903 20.4226L150.693 17.2652C152.272 14.4235 152.272 13.8973 150.903 13.0553C149.85 12.4238 148.587 12.6343 147.008 13.6868C144.903 15.055 144.587 15.055 144.587 13.5815C144.587 12.7395 144.166 12.0028 143.535 12.0028C143.008 12.0028 142.482 12.6343 142.482 13.4763C142.482 15.2655 135.324 21.4751 133.324 21.4751C132.587 21.4751 131.956 20.7384 131.956 19.8964C131.956 18.9492 132.903 18.3177 134.377 18.3177C137.008 18.3177 139.324 16.5285 139.324 14.4235C139.324 13.5815 137.956 13.0553 135.64 13.0553C133.64 13.0553 131.956 12.529 131.956 12.0028C131.956 9.3716 127.956 11.2661 125.745 14.8445ZM110.166 17.4757C108.271 19.3702 106.482 20.5279 106.061 20.2121C105.218 19.2649 110.376 14.1078 112.166 14.1078C112.903 14.1078 111.955 15.5812 110.166 17.4757ZM136.166 16.2127C133.64 17.7914 132.271 17.3704 134.482 15.6865C135.64 14.8445 136.798 14.4235 137.113 14.7392C137.429 15.055 137.008 15.6865 136.166 16.2127Z" fill="#3E3E3E"/>
</g>
</svg>
